<svg xmlns:xlink="http://www.w3.org/1999/xlink" xmlns="http://www.w3.org/2000/svg" width="181" height="79" viewBox="0 0 181 79" fill="none" id="poweredByVerifiableLogo_Large">
<path fill-rule="evenodd" clip-rule="evenodd" d="M20.5066 75.3963C19.5016 76.9803 17.1906 76.9814 16.184 75.3985L2.50181 53.8819C1.41788 52.1773 2.64239 49.9476 4.66241 49.9476H18.338L18.3451 35.8387C18.3462 33.7183 20.0654 32 22.1857 32H43.3837C45.4025 32 46.6272 34.2275 45.5456 35.9322L20.5066 75.3963Z" fill="#6CEECB"/>
<mask id="mask0_7724_39243" style="mask-type:alpha" maskUnits="userSpaceOnUse" x="2" y="32" width="44" height="45">
<path fill-rule="evenodd" clip-rule="evenodd" d="M20.5066 75.3963C19.5016 76.9803 17.1906 76.9814 16.184 75.3985L2.50181 53.8819C1.41788 52.1773 2.64239 49.9476 4.66241 49.9476H18.338L18.3451 35.8387C18.3462 33.7183 20.0654 32 22.1857 32H43.3837C45.4025 32 46.6272 34.2275 45.5456 35.9322L20.5066 75.3963Z" fill="white"/>
</mask>
<g mask="url(#mask0_7724_39243)">
<path fill-rule="evenodd" clip-rule="evenodd" d="M12.8701 49.9482L18.3472 49.9482V78.3463L12.8701 49.9482Z" fill="#1C9172"/>
</g>
<path fill-rule="evenodd" clip-rule="evenodd" d="M18.1222 76.582C17.3358 76.5443 16.564 76.1498 16.0862 75.3984L2.40398 53.8818C1.32006 52.1773 2.54456 49.9475 4.56458 49.9475H12.876L18.1222 76.582Z" fill="#35BC98"/>
<path fill-rule="evenodd" clip-rule="evenodd" d="M107.234 55.1748H105.265V52.2735H107.234V51.3632C107.234 50.5478 107.372 49.7703 107.647 49.0308C107.923 48.2912 108.323 47.6512 108.846 47.1108C109.369 46.5703 110.006 46.1389 110.757 45.8166C111.509 45.4942 112.36 45.333 113.311 45.333C114.395 45.333 115.389 45.5084 116.292 45.8592C117.196 46.21 118.047 46.6509 118.846 47.1819L117.334 50.0263C116.839 49.5902 116.259 49.2394 115.593 48.9739C114.927 48.7084 114.252 48.5757 113.568 48.5757C112.712 48.5757 112.079 48.8412 111.67 49.3721C111.261 49.9031 111.057 50.5194 111.057 51.221V52.2735H119.074V66.3819H115.251V55.1748H111.057V66.3819H107.234V55.1748ZM99.0448 45.6163V49.3994H102.868V45.6163H99.0448ZM61.8414 61.4612L56.3635 46.1865H52.2266L60.1866 66.3821H63.4961L71.3991 46.1865H67.2622L61.8414 61.4612ZM74.5946 66.0564C75.5646 66.4641 76.6488 66.668 77.8471 66.668C79.5209 66.668 80.9617 66.303 82.1695 65.5729C83.3773 64.8428 84.2569 63.9089 84.8085 62.7711L81.5275 61.8609C81.2803 62.4677 80.819 62.956 80.1438 63.3258C79.4686 63.6955 78.7506 63.8804 77.9897 63.8804C77.4952 63.8804 77.0197 63.7951 76.5632 63.6244C76.1067 63.4538 75.6978 63.2073 75.3364 62.8849C74.975 62.5625 74.6802 62.1738 74.452 61.7187C74.2237 61.2635 74.0811 60.7421 74.024 60.1542H85.5789C85.6169 60.0025 85.6407 59.8129 85.6502 59.5853C85.6597 59.3578 85.6645 59.1207 85.6645 58.8742C85.6645 57.8692 85.4885 56.9021 85.1366 55.9729C84.7848 55.0437 84.2712 54.2283 83.596 53.5267C82.9208 52.825 82.1029 52.2656 81.1424 51.8484C80.1818 51.4312 79.0929 51.2227 77.8756 51.2227C76.6583 51.2227 75.5599 51.4312 74.5803 51.8484C73.6008 52.2656 72.7687 52.8298 72.0839 53.5409C71.3992 54.252 70.8761 55.0769 70.5147 56.0155C70.1533 56.9542 69.9727 57.9545 69.9727 59.0164C69.9727 60.0404 70.1581 61.017 70.529 61.9462C70.8999 62.8754 71.4277 63.6908 72.1124 64.3924C72.7972 65.0941 73.6246 65.6487 74.5946 66.0564ZM81.7276 57.6782C81.6325 56.5594 81.2188 55.6634 80.4865 54.9902C79.7542 54.3171 78.865 53.9805 77.8189 53.9805C77.3054 53.9805 76.8251 54.0705 76.3781 54.2507C75.9311 54.4308 75.5365 54.6821 75.1941 55.0045C74.8517 55.3268 74.5712 55.7156 74.3524 56.1707C74.1337 56.6258 74.0053 57.1283 73.9673 57.6782H81.7276ZM93.7954 55.4445C94.7084 55.0178 95.745 54.795 96.9052 54.776V51.3058C96.8101 51.2868 96.7103 51.2773 96.6056 51.2773H96.1349C95.7355 51.2773 95.3218 51.3579 94.8938 51.5191C94.4658 51.6803 94.0426 51.9126 93.6242 52.216C93.2057 52.5194 92.8158 52.875 92.4544 53.2827C92.093 53.6904 91.7792 54.1502 91.5129 54.6622V51.4765H88.0037V66.3813H91.8268V57.3645C92.2262 56.5111 92.8824 55.8711 93.7954 55.4445ZM99.0449 66.3824V51.4775H102.868V66.3824H99.0449ZM124.58 66.3124C125.208 66.5495 125.883 66.668 126.606 66.668C127.69 66.668 128.708 66.4404 129.659 65.9853C130.61 65.5302 131.418 64.8665 132.084 63.9942L132.169 64.8191C132.265 65.3501 132.507 65.7767 132.897 66.0991C133.287 66.4215 133.843 66.5827 134.566 66.5827C135.042 66.5827 135.603 66.5163 136.249 66.3835V63.1409C135.926 63.1219 135.693 63.0271 135.55 62.8564C135.408 62.6858 135.336 62.4013 135.336 62.0031V57.3667C135.336 55.3755 134.742 53.8538 133.553 52.8013C132.364 51.7489 130.695 51.2227 128.546 51.2227C126.321 51.2227 124.247 51.8579 122.326 53.1284L123.496 55.5462C124.295 54.9963 125.075 54.5791 125.836 54.2947C126.596 54.0102 127.376 53.868 128.175 53.868C129.278 53.868 130.11 54.1335 130.672 54.6644C131.233 55.1954 131.513 55.9539 131.513 56.94V57.7933C131.019 57.5847 130.453 57.4235 129.816 57.3098C129.178 57.196 128.527 57.1391 127.861 57.1391C126.929 57.1391 126.073 57.2576 125.294 57.4947C124.514 57.7317 123.843 58.0588 123.282 58.476C122.721 58.8932 122.284 59.4004 121.97 59.9978C121.656 60.5951 121.499 61.2446 121.499 61.9462C121.499 62.6289 121.627 63.2547 121.884 63.8235C122.141 64.3924 122.498 64.8902 122.954 65.3169C123.411 65.7435 123.953 66.0754 124.58 66.3124ZM127.69 63.8785C128.337 63.8785 128.95 63.7647 129.53 63.5372C130.11 63.3096 130.562 63.0062 130.885 62.627C131.304 62.3046 131.513 61.9443 131.513 61.5461V59.8394C131.056 59.6687 130.562 59.5312 130.029 59.427C129.497 59.3227 128.983 59.2705 128.489 59.2705C127.5 59.2705 126.691 59.4933 126.064 59.939C125.436 60.3846 125.122 60.9487 125.122 61.6314C125.122 62.2761 125.369 62.8118 125.864 63.2385C126.358 63.6652 126.967 63.8785 127.69 63.8785ZM144.351 65.8972C145.245 66.4092 146.263 66.6652 147.404 66.6652C148.393 66.6652 149.316 66.466 150.172 66.0678C151.028 65.6696 151.769 65.1244 152.397 64.4323C153.025 63.7401 153.514 62.9295 153.866 62.0003C154.218 61.0711 154.394 60.066 154.394 58.9852C154.394 57.9422 154.237 56.9466 153.923 55.9985C153.61 55.0503 153.163 54.2255 152.582 53.5238C152.002 52.8222 151.313 52.2628 150.514 51.8456C149.715 51.4284 148.831 51.2198 147.861 51.2198C146.7 51.2198 145.688 51.4711 144.822 51.9736C143.957 52.4761 143.258 53.1825 142.725 54.0927V45.6163H138.902V66.3807H142.24V63.7923C142.754 64.6835 143.457 65.3851 144.351 65.8972ZM146.349 63.4229C146.958 63.4229 147.519 63.3044 148.033 63.0673C148.546 62.8303 148.984 62.5127 149.345 62.1144C149.707 61.7162 149.987 61.2516 150.187 60.7207C150.387 60.1897 150.486 59.6208 150.486 59.014C150.486 58.4072 150.391 57.8288 150.201 57.2789C150.011 56.729 149.74 56.2454 149.388 55.8282C149.036 55.411 148.622 55.0792 148.147 54.8327C147.671 54.5861 147.148 54.4629 146.578 54.4629C145.722 54.4629 144.956 54.7426 144.281 55.302C143.606 55.8614 143.087 56.5488 142.726 57.3642V60.9198C142.859 61.299 143.054 61.6404 143.311 61.9438C143.568 62.2472 143.858 62.5079 144.181 62.726C144.504 62.9441 144.856 63.1147 145.237 63.238C145.617 63.3613 145.988 63.4229 146.349 63.4229ZM160.784 45.6163H156.961V62.9389C156.961 64.1146 157.289 65.0201 157.946 65.6554C158.602 66.2906 159.529 66.6083 160.727 66.6083C161.279 66.6083 161.897 66.5419 162.582 66.4092C163.267 66.2764 163.866 66.0868 164.379 65.8403L163.866 62.9389C163.618 63.0527 163.357 63.1475 163.081 63.2234C162.805 63.2992 162.553 63.3372 162.325 63.3372C161.831 63.3372 161.45 63.1855 161.184 62.882C160.918 62.5786 160.784 62.152 160.784 61.602V45.6163ZM172.968 66.668C171.77 66.668 170.686 66.4641 169.716 66.0564C168.746 65.6487 167.918 65.0941 167.234 64.3924C166.549 63.6908 166.021 62.8754 165.65 61.9462C165.279 61.017 165.094 60.0404 165.094 59.0164C165.094 57.9545 165.274 56.9542 165.636 56.0155C165.997 55.0769 166.52 54.252 167.205 53.5409C167.89 52.8298 168.722 52.2656 169.701 51.8484C170.681 51.4312 171.779 51.2227 172.997 51.2227C174.214 51.2227 175.303 51.4312 176.263 51.8484C177.224 52.2656 178.042 52.825 178.717 53.5267C179.392 54.2283 179.906 55.0437 180.258 55.9729C180.61 56.9021 180.786 57.8692 180.786 58.8742C180.786 59.1207 180.781 59.3578 180.771 59.5853C180.762 59.8129 180.738 60.0025 180.7 60.1542H169.145C169.202 60.7421 169.345 61.2635 169.573 61.7187C169.801 62.1738 170.096 62.5625 170.457 62.8849C170.819 63.2073 171.228 63.4538 171.684 63.6244C172.141 63.7951 172.616 63.8804 173.111 63.8804C173.872 63.8804 174.59 63.6955 175.265 63.3258C175.94 62.956 176.401 62.4677 176.649 61.8609L179.93 62.7711C179.378 63.9089 178.498 64.8428 177.291 65.5729C176.083 66.303 174.642 66.668 172.968 66.668ZM175.607 54.9912C176.339 55.6644 176.753 56.5604 176.848 57.6792H169.087C169.125 57.1293 169.254 56.6268 169.473 56.1717C169.691 55.7166 169.972 55.3278 170.314 55.0054C170.657 54.6831 171.051 54.4318 171.498 54.2517C171.945 54.0715 172.425 53.9814 172.939 53.9814C173.985 53.9814 174.874 54.318 175.607 54.9912Z" fill="#2C2B3F"/>
<path d="M33.7687 1.5372C35.6144 1.5372 37.0607 1.97798 38.1076 2.85952C39.1544 3.74106 39.6778 4.95319 39.6778 6.49589C39.6778 8.03859 39.1544 9.25072 38.1076 10.1323C37.0607 11 35.6144 11.4339 33.7687 11.4339H29.8844V16H28.3555V1.5372H33.7687ZM33.7274 10.0909C35.1599 10.0909 36.2549 9.78102 37.0125 9.16118C37.7701 8.52757 38.1489 7.63914 38.1489 6.49589C38.1489 5.32509 37.7701 4.42977 37.0125 3.80994C36.2549 3.17633 35.1599 2.85952 33.7274 2.85952H29.8844V10.0909H33.7274Z" fill="#B3B3B3"/>
<path d="M47.0555 16.1033C46.0086 16.1033 45.0651 15.8692 44.2249 15.4009C43.3847 14.9188 42.7235 14.2576 42.2414 13.4174C41.7593 12.5772 41.5183 11.6268 41.5183 10.5661C41.5183 9.50554 41.7593 8.55512 42.2414 7.7149C42.7235 6.87468 43.3847 6.22041 44.2249 5.75209C45.0651 5.28377 46.0086 5.04961 47.0555 5.04961C48.1023 5.04961 49.0458 5.28377 49.886 5.75209C50.7263 6.22041 51.3805 6.87468 51.8489 7.7149C52.331 8.55512 52.572 9.50554 52.572 10.5661C52.572 11.6268 52.331 12.5772 51.8489 13.4174C51.3805 14.2576 50.7263 14.9188 49.886 15.4009C49.0458 15.8692 48.1023 16.1033 47.0555 16.1033ZM47.0555 14.8017C47.8268 14.8017 48.5155 14.6295 49.1216 14.2852C49.7414 13.927 50.2235 13.4243 50.5679 12.7769C50.9122 12.1295 51.0844 11.3926 51.0844 10.5661C51.0844 9.7397 50.9122 9.00278 50.5679 8.3554C50.2235 7.70801 49.7414 7.21214 49.1216 6.86779C48.5155 6.50966 47.8268 6.3306 47.0555 6.3306C46.2841 6.3306 45.5885 6.50966 44.9687 6.86779C44.3626 7.21214 43.8805 7.70801 43.5224 8.3554C43.178 9.00278 43.0059 9.7397 43.0059 10.5661C43.0059 11.3926 43.178 12.1295 43.5224 12.7769C43.8805 13.4243 44.3626 13.927 44.9687 14.2852C45.5885 14.6295 46.2841 14.8017 47.0555 14.8017Z" fill="#B3B3B3"/>
<path d="M71.2147 5.13225L67.1031 16H65.7188L62.2891 7.09506L58.8593 16H57.475L53.3841 5.13225H54.789L58.1981 14.3678L61.6899 5.13225H62.9502L66.4213 14.3678L69.8717 5.13225H71.2147Z" fill="#B3B3B3"/>
<path d="M82.5837 11.0207H73.4927C73.5754 12.1502 74.0093 13.0661 74.7944 13.7686C75.5795 14.4573 76.5713 14.8017 77.7696 14.8017C78.4445 14.8017 79.0644 14.6846 79.6291 14.4504C80.1939 14.2025 80.6828 13.8444 81.0961 13.3761L81.9225 14.3265C81.4404 14.905 80.8343 15.3458 80.1043 15.6488C79.3881 15.9518 78.5961 16.1033 77.7283 16.1033C76.6126 16.1033 75.6208 15.8692 74.7531 15.4009C73.8991 14.9188 73.231 14.2576 72.7489 13.4174C72.2668 12.5772 72.0258 11.6268 72.0258 10.5661C72.0258 9.50554 72.2531 8.55512 72.7076 7.7149C73.1759 6.87468 73.8095 6.22041 74.6084 5.75209C75.4211 5.28377 76.3302 5.04961 77.3357 5.04961C78.3412 5.04961 79.2434 5.28377 80.0423 5.75209C80.8412 6.22041 81.468 6.87468 81.9225 7.7149C82.3771 8.54135 82.6043 9.49176 82.6043 10.5661L82.5837 11.0207ZM77.3357 6.30994C76.2889 6.30994 75.4073 6.64741 74.6911 7.32234C73.9886 7.9835 73.5892 8.85127 73.4927 9.92565H81.1994C81.1029 8.85127 80.6966 7.9835 79.9804 7.32234C79.2779 6.64741 78.3963 6.30994 77.3357 6.30994Z" fill="#B3B3B3"/>
<path d="M86.9952 7.26035C87.3395 6.53033 87.8491 5.97936 88.5241 5.60746C89.2128 5.23556 90.0599 5.04961 91.0654 5.04961V6.47523L90.7142 6.45457C89.5709 6.45457 88.6756 6.80581 88.0282 7.50829C87.3808 8.21077 87.0571 9.19562 87.0571 10.4628V16H85.5902V5.13225H86.9952V7.26035Z" fill="#B3B3B3"/>
<path d="M103.083 11.0207H93.9925C94.0752 12.1502 94.509 13.0661 95.2942 13.7686C96.0793 14.4573 97.071 14.8017 98.2694 14.8017C98.9443 14.8017 99.5642 14.6846 100.129 14.4504C100.694 14.2025 101.183 13.8444 101.596 13.3761L102.422 14.3265C101.94 14.905 101.334 15.3458 100.604 15.6488C99.8878 15.9518 99.0958 16.1033 98.2281 16.1033C97.1124 16.1033 96.1206 15.8692 95.2528 15.4009C94.3988 14.9188 93.7308 14.2576 93.2487 13.4174C92.7666 12.5772 92.5256 11.6268 92.5256 10.5661C92.5256 9.50554 92.7528 8.55512 93.2074 7.7149C93.6757 6.87468 94.3093 6.22041 95.1082 5.75209C95.9209 5.28377 96.83 5.04961 97.8355 5.04961C98.841 5.04961 99.7432 5.28377 100.542 5.75209C101.341 6.22041 101.968 6.87468 102.422 7.7149C102.877 8.54135 103.104 9.49176 103.104 10.5661L103.083 11.0207ZM97.8355 6.30994C96.7887 6.30994 95.9071 6.64741 95.1909 7.32234C94.4884 7.9835 94.0889 8.85127 93.9925 9.92565H101.699C101.603 8.85127 101.196 7.9835 100.48 7.32234C99.7777 6.64741 98.8961 6.30994 97.8355 6.30994Z" fill="#B3B3B3"/>
<path d="M116.007 0.669434V16H114.602V13.8513C114.162 14.5813 113.576 15.1392 112.846 15.5248C112.13 15.9105 111.317 16.1033 110.408 16.1033C109.389 16.1033 108.466 15.8692 107.64 15.4009C106.813 14.9325 106.166 14.2783 105.697 13.4381C105.229 12.5978 104.995 11.6405 104.995 10.5661C104.995 9.49176 105.229 8.53446 105.697 7.69424C106.166 6.85402 106.813 6.20663 107.64 5.75209C108.466 5.28377 109.389 5.04961 110.408 5.04961C111.29 5.04961 112.082 5.23556 112.784 5.60746C113.5 5.96559 114.086 6.49589 114.54 7.19837V0.669434H116.007ZM110.532 14.8017C111.29 14.8017 111.972 14.6295 112.578 14.2852C113.197 13.927 113.68 13.4243 114.024 12.7769C114.382 12.1295 114.561 11.3926 114.561 10.5661C114.561 9.7397 114.382 9.00278 114.024 8.3554C113.68 7.70801 113.197 7.21214 112.578 6.86779C111.972 6.50966 111.29 6.3306 110.532 6.3306C109.761 6.3306 109.065 6.50966 108.445 6.86779C107.839 7.21214 107.357 7.70801 106.999 8.3554C106.655 9.00278 106.483 9.7397 106.483 10.5661C106.483 11.3926 106.655 12.1295 106.999 12.7769C107.357 13.4243 107.839 13.927 108.445 14.2852C109.065 14.6295 109.761 14.8017 110.532 14.8017Z" fill="#B3B3B3"/>
<path d="M131.099 5.04961C132.119 5.04961 133.042 5.28377 133.868 5.75209C134.694 6.20663 135.342 6.85402 135.81 7.69424C136.278 8.53446 136.513 9.49176 136.513 10.5661C136.513 11.6405 136.278 12.5978 135.81 13.4381C135.342 14.2783 134.694 14.9325 133.868 15.4009C133.042 15.8692 132.119 16.1033 131.099 16.1033C130.19 16.1033 129.371 15.9105 128.641 15.5248C127.924 15.1392 127.346 14.5813 126.905 13.8513V16H125.5V0.669434H126.967V7.19837C127.422 6.49589 128 5.96559 128.703 5.60746C129.419 5.23556 130.218 5.04961 131.099 5.04961ZM130.996 14.8017C131.754 14.8017 132.442 14.6295 133.062 14.2852C133.682 13.927 134.164 13.4243 134.508 12.7769C134.867 12.1295 135.046 11.3926 135.046 10.5661C135.046 9.7397 134.867 9.00278 134.508 8.3554C134.164 7.70801 133.682 7.21214 133.062 6.86779C132.442 6.50966 131.754 6.3306 130.996 6.3306C130.225 6.3306 129.529 6.50966 128.909 6.86779C128.303 7.21214 127.821 7.70801 127.463 8.3554C127.119 9.00278 126.946 9.7397 126.946 10.5661C126.946 11.3926 127.119 12.1295 127.463 12.7769C127.821 13.4243 128.303 13.927 128.909 14.2852C129.529 14.6295 130.225 14.8017 130.996 14.8017Z" fill="#B3B3B3"/>
<path d="M148.333 5.13225L142.899 17.3017C142.458 18.321 141.948 19.0441 141.37 19.4711C140.791 19.8981 140.096 20.1116 139.283 20.1116C138.76 20.1116 138.271 20.029 137.816 19.8637C137.361 19.6984 136.969 19.4505 136.638 19.1199L137.32 18.0248C137.871 18.5758 138.532 18.8513 139.304 18.8513C139.8 18.8513 140.22 18.7135 140.564 18.4381C140.922 18.1626 141.253 17.6943 141.556 17.0331L142.031 15.9794L137.176 5.13225H138.704L142.795 14.3678L146.886 5.13225H148.333Z" fill="#B3B3B3"/>
</svg>